<svg width="429" height="46.70538605163849" viewBox="0 0 439.28222897124914 47.824816059968406" class="looka-1j8o68f">
   <defs id="SvgjsDefs3845"></defs>
   <g id="SvgjsG3846" featurekey="nameLeftFeature-0" transform="matrix(2.1289537844627966,0,0,2.1289537844627966,-2.384427994958907,-5.307784648968184)" fill="#ffffff">
      <path d="M1.12 7.76 l3 0 l0 12.24 l-3 0 l0 -12.24 z M21.6 12.5 l0 6.8 c-1.42 0.54 -3.2 0.84 -4.72 0.84 c-3.9 0 -6.52 -2.34 -6.52 -6.2 c0 -4.22 3.14 -6.28 6.98 -6.28 c0.26 0 0.54 0 0.86 0.02 c0.3 0.02 0.62 0.06 0.96 0.08 c0.62 0.08 1.24 0.16 1.84 0.34 l0 3.06 c-0.22 -0.1 -0.46 -0.18 -0.74 -0.26 c-0.3 -0.06 -0.6 -0.12 -0.92 -0.18 c-0.64 -0.12 -1.32 -0.16 -1.98 -0.16 c-2.54 0 -4 0.78 -4 3.38 c0 2.54 1.34 3.3 3.62 3.3 c0.24 0 0.5 -0.02 0.78 -0.04 c0.26 -0.02 0.54 -0.04 0.84 -0.06 l0 -1.86 l-2.6 0 l0 -2.78 l5.6 0 z M29.38 17.32 c2.18 0 3.3 -1.4 3.3 -3.44 c0 -2.16 -1.2 -3.44 -3.3 -3.44 c-2.2 0 -3.3 1.4 -3.3 3.44 c0 2.12 1.22 3.44 3.3 3.44 z M29.38 20.1 c-3.76 0 -6.3 -2.56 -6.3 -6.22 c0 -3.78 2.66 -6.22 6.3 -6.22 c3.78 0 6.3 2.54 6.3 6.22 c0 3.8 -2.64 6.22 -6.3 6.22 z M36.82 7.76 l10.2 0 l0 2.78 l-3.6 0 l0 9.46 l-3 0 l0 -9.46 l-3.6 0 l0 -2.78 z M55.98 13.26 l0 6.74 l-3 0 l0 -12.24 l3 0 l3.82 6.76 l3.82 -6.76 l3 0 l0 12.24 l-3 0 l0 -6.74 l-2.32 3.98 l-3 0 z M72.18 20 l0 -4.54 c-2.42 -0.54 -3.82 -2.54 -3.82 -4.94 l0 -2.76 l3 0 l0 2.76 c0 1.44 0.86 2.32 2.3 2.32 c1.48 0 2.3 -0.86 2.3 -2.32 l0 -2.76 l3 0 l0 2.76 c0 2.44 -1.42 4.38 -3.78 4.94 l0 4.54 l-3 0 z"></path>
   </g>
   <g id="SvgjsG3847" featurekey="inlineSymbolFeature-0" transform="matrix(0.8396062935520199,0,0,0.8396062935520199,186.33500305205237,-36.121541423117236)" fill="#118df0">
      <path xmlns="http://www.w3.org/2000/svg" d="M47.913,84.541c0,2.188-5.008,3.964-11.188,3.964c-6.176,0-11.186-1.775-11.186-3.964v4.145  c0,2.189,5.009,3.964,11.186,3.964c6.18,0,11.188-1.774,11.188-3.964V84.541z"></path>
      <path xmlns="http://www.w3.org/2000/svg" d="M47.913,74.785c0,2.19-5.008,3.965-11.188,3.965c-6.176,0-11.186-1.774-11.186-3.965c0-2.189,5.009-3.964,11.186-3.964  C42.904,70.821,47.913,72.596,47.913,74.785"></path>
      <path xmlns="http://www.w3.org/2000/svg" d="M47.913,77.591c0,2.189-5.008,3.964-11.188,3.964c-6.176,0-11.186-1.774-11.186-3.964v4.145  c0,2.189,5.009,3.964,11.186,3.964c6.18,0,11.188-1.774,11.188-3.964V77.591z"></path>
      <path xmlns="http://www.w3.org/2000/svg" d="M47.913,91.874c0,2.189-5.008,3.964-11.188,3.964c-6.176,0-11.186-1.774-11.186-3.964v4.146  c0,2.188,5.009,3.962,11.186,3.962c6.18,0,11.188-1.774,11.188-3.962V91.874z"></path>
      <path xmlns="http://www.w3.org/2000/svg" d="M73.851,84.541c0,2.188-5.007,3.964-11.188,3.964c-6.175,0-11.187-1.775-11.187-3.964v4.145  c0,2.189,5.009,3.964,11.187,3.964c6.181,0,11.188-1.774,11.188-3.964V84.541z"></path>
      <path xmlns="http://www.w3.org/2000/svg" d="M73.851,77.591c0,2.189-5.007,3.964-11.188,3.964c-6.175,0-11.187-1.774-11.187-3.964v4.145  c0,2.189,5.009,3.964,11.187,3.964c6.181,0,11.188-1.774,11.188-3.964V77.591z"></path>
      <path xmlns="http://www.w3.org/2000/svg" d="M73.851,70.641c0,2.189-5.007,3.965-11.188,3.965c-6.175,0-11.187-1.775-11.187-3.965v4.145  c0,2.19,5.009,3.965,11.187,3.965c6.181,0,11.188-1.774,11.188-3.965V70.641z"></path>
      <path xmlns="http://www.w3.org/2000/svg" d="M73.851,60.886c0,2.189-5.007,3.964-11.188,3.964c-6.175,0-11.187-1.774-11.187-3.964c0-2.19,5.009-3.965,11.187-3.965  C68.844,56.921,73.851,58.695,73.851,60.886"></path>
      <path xmlns="http://www.w3.org/2000/svg" d="M73.851,63.69c0,2.19-5.007,3.965-11.188,3.965c-6.175,0-11.187-1.774-11.187-3.965v4.146c0,2.188,5.009,3.964,11.187,3.964  c6.181,0,11.188-1.775,11.188-3.964V63.69z"></path>
      <path xmlns="http://www.w3.org/2000/svg" d="M73.851,91.874c0,2.189-5.007,3.964-11.188,3.964c-6.175,0-11.187-1.774-11.187-3.964v4.146  c0,2.188,5.009,3.962,11.187,3.962c6.181,0,11.188-1.774,11.188-3.962V91.874z"></path>
      <path xmlns="http://www.w3.org/2000/svg" d="M99.78,84.541c0,2.188-5.006,3.964-11.186,3.964c-6.176,0-11.188-1.775-11.188-3.964v4.145  c0,2.189,5.009,3.964,11.188,3.964s11.186-1.774,11.186-3.964V84.541z"></path>
      <path xmlns="http://www.w3.org/2000/svg" d="M99.78,77.591c0,2.189-5.006,3.964-11.186,3.964c-6.176,0-11.188-1.774-11.188-3.964v4.145  c0,2.189,5.009,3.964,11.188,3.964s11.186-1.774,11.186-3.964V77.591z"></path>
      <path xmlns="http://www.w3.org/2000/svg" d="M99.78,70.641c0,2.189-5.006,3.965-11.186,3.965c-6.176,0-11.188-1.775-11.188-3.965v4.145c0,2.19,5.009,3.965,11.188,3.965  s11.186-1.774,11.186-3.965V70.641z"></path>
      <path xmlns="http://www.w3.org/2000/svg" d="M99.78,63.69c0,2.19-5.006,3.965-11.186,3.965c-6.176,0-11.188-1.774-11.188-3.965v4.146c0,2.188,5.009,3.964,11.188,3.964  s11.186-1.775,11.186-3.964V63.69z"></path>
      <path xmlns="http://www.w3.org/2000/svg" d="M99.78,56.741c0,2.189-5.006,3.964-11.186,3.964c-6.176,0-11.188-1.774-11.188-3.964v4.145  c0,2.189,5.009,3.964,11.188,3.964s11.186-1.774,11.186-3.964V56.741z"></path>
      <path xmlns="http://www.w3.org/2000/svg" d="M99.78,46.986c0,2.189-5.006,3.964-11.186,3.964c-6.176,0-11.188-1.775-11.188-3.964c0-2.19,5.009-3.964,11.188-3.964  S99.78,44.796,99.78,46.986"></path>
      <path xmlns="http://www.w3.org/2000/svg" d="M99.78,49.791c0,2.189-5.006,3.964-11.186,3.964c-6.176,0-11.188-1.774-11.188-3.964v4.145c0,2.19,5.009,3.965,11.188,3.965  s11.186-1.774,11.186-3.965V49.791z"></path>
      <path xmlns="http://www.w3.org/2000/svg" d="M99.78,91.874c0,2.189-5.006,3.964-11.186,3.964c-6.176,0-11.188-1.774-11.188-3.964v4.146  c0,2.188,5.009,3.962,11.188,3.962s11.186-1.774,11.186-3.962V91.874z"></path>
      <path xmlns="http://www.w3.org/2000/svg" d="M21.975,89.066c0,2.192-5.009,3.967-11.187,3.967c-6.177,0-11.187-1.774-11.187-3.967c0-2.188,5.01-3.962,11.187-3.962  C16.966,85.104,21.975,86.879,21.975,89.066"></path>
      <path xmlns="http://www.w3.org/2000/svg" d="M21.975,91.874c0,2.188-5.009,3.962-11.187,3.962c-6.177,0-11.187-1.774-11.187-3.962v4.144c0,2.19,5.01,3.965,11.187,3.965  c6.178,0,11.187-1.774,11.187-3.965V91.874z"></path>
   </g>
   <g id="SvgjsG3848" featurekey="nameRightFeature-0" transform="matrix(2.1289537844627966,0,0,2.1289537844627966,278.20559611528927,-5.307784648968184)" fill="#ffffff">
      <path d="M14.56 13.719999999999999 c0.88 0.62 1.4 1.54 1.4 2.62 c0 2.08 -1.92 3.66 -3.92 3.66 l-6.5 0 l0 -12.24 l6.1 0 c1.6 0 2.92 0.86 3.62 2.28 c0.2 0.46 0.3 0.92 0.3 1.4 c0 0.9 -0.36 1.64 -1 2.28 z M8.54 10.54 l0 1.96 l3.1 0 c0.52 0 0.92 -0.5 0.92 -1 c0 -0.52 -0.38 -0.96 -0.92 -0.96 l-3.1 0 z M8.54 15.280000000000001 l0 1.94 l3.5 0 c0.54 0 0.92 -0.44 0.92 -0.96 c0 -0.26 -0.1 -0.5 -0.28 -0.7 c-0.18 -0.18 -0.4 -0.28 -0.64 -0.28 l-3.5 0 z M25.1 7.76 l3 0 l0 7.24 c0 3.18 -2.28 5.1 -5.3 5.1 c-3.1 0 -5.3 -2.04 -5.3 -5.1 l0 -7.24 l3 0 l0 7.24 c0 1.44 0.86 2.32 2.3 2.32 c1.48 0 2.3 -0.86 2.3 -2.32 l0 -7.24 z M34.5 20 l-4.3 0 l0 -12.24 l4.3 0 c3.74 0 6.3 2.44 6.3 6.12 c0 3.78 -2.7 6.12 -6.3 6.12 z M33.2 10.54 l0 6.68 l1.3 0 c2.12 0 3.3 -1.34 3.3 -3.34 c0 -0.46 -0.06 -0.88 -0.18 -1.3 c-0.52 -1.46 -1.66 -2.04 -3.12 -2.04 l-1.3 0 z M53.480000000000004 12.5 l0 6.8 c-1.42 0.54 -3.2 0.84 -4.72 0.84 c-3.9 0 -6.52 -2.34 -6.52 -6.2 c0 -4.22 3.14 -6.28 6.98 -6.28 c0.26 0 0.54 0 0.86 0.02 c0.3 0.02 0.62 0.06 0.96 0.08 c0.62 0.08 1.24 0.16 1.84 0.34 l0 3.06 c-0.22 -0.1 -0.46 -0.18 -0.74 -0.26 c-0.3 -0.06 -0.6 -0.12 -0.92 -0.18 c-0.64 -0.12 -1.32 -0.16 -1.98 -0.16 c-2.54 0 -4 0.78 -4 3.38 c0 2.54 1.34 3.3 3.62 3.3 c0.24 0 0.5 -0.02 0.78 -0.04 c0.26 -0.02 0.54 -0.04 0.84 -0.06 l0 -1.86 l-2.6 0 l0 -2.78 l5.6 0 z M55.38 7.76 l9.1 0 l0 2.78 l-6.1 0 l0 1.96 l4.9 0 l0 2.78 l-4.9 0 l0 1.94 l6.1 0 l0 2.78 l-9.1 0 l0 -12.24 z M65.46000000000001 7.76 l10.2 0 l0 2.78 l-3.6 0 l0 9.46 l-3 0 l0 -9.46 l-3.6 0 l0 -2.78 z"></path>
   </g>
</svg>
